{
  "accessors": [
    {
      "bufferView": 1,
      "componentType": 5126,
      "count": 3796,
      "max": [
        29.999992370605469,
        29.999992370605469,
        14.385000228881836
      ],
      "min": [
        -30.000001907348633,
        -30.000001907348633,
        -13.614995956420898
      ],
      "type": "VEC3"
    },
    {
      "bufferView": 1,
      "byteOffset": 45552,
      "componentType": 5126,
      "count": 3796,
      "max": [
        0.99999493360519409,
        1,
        1
      ],
      "min": [
        -0.99999487400054932,
        -1,
        -1
      ],
      "type": "VEC3"
    },
    {
      "bufferView": 0,
      "componentType": 5125,
      "count": 11844,
      "max": [
        3795
      ],
      "min": [
        0
      ],
      "type": "SCALAR"
    }
  ],
  "asset": {
    "extras": {
      "author": "Christian Mendez (https://sketchfab.com/christianmendez)",
      "license": "CC-BY-NC-SA-4.0 (http://creativecommons.org/licenses/by-nc-sa/4.0/)",
      "source": "https://sketchfab.com/models/839f60aaba8949e1a326c413c9920e5b",
      "title": "04B30T Sprocket Flywheel Adapter"
    },
    "generator": "Sketchfab-3.33.1",
    "version": "2.0"
  },
  "bufferViews": [
    {
      "buffer": 0,
      "byteLength": 47376,
      "byteOffset": 0,
      "name": "floatBufferViews",
      "target": 34963
    },
    {
      "buffer": 0,
      "byteLength": 91104,
      "byteOffset": 47376,
      "byteStride": 12,
      "name": "floatBufferViews",
      "target": 34962
    }
  ],
  "buffers": [
    {
      "byteLength": 138480,
      "uri": "scene.bin"
    }
  ],
  "materials": [
    {
      "doubleSided": true,
      "name": "Scene_-_Root",
      "pbrMetallicRoughness": {
        "baseColorFactor": [
          0.80049542679999997,
          0.80049542679999997,
          0.80049542679999997,
          1
        ],
        "metallicFactor": 0,
        "roughnessFactor": 0.59999999999999998
      }
    }
  ],
  "meshes": [
    {
      "primitives": [
        {
          "attributes": {
            "NORMAL": 1,
            "POSITION": 0
          },
          "indices": 2,
          "material": 0,
          "mode": 4
        }
      ]
    }
  ],
  "nodes": [
    {
      "children": [
        1
      ],
      "name": "RootNode (gltf orientation matrix)",
      "rotation": [
        -0.70710678118654746,
        -0,
        -0,
        0.70710678118654757
      ]
    },
    {
      "children": [
        2
      ],
      "name": "RootNode (model correction matrix)"
    },
    {
      "children": [
        3
      ],
      "name": "3aad7efdaddd40c8bacf336ca79c374c.stl.cleaner.materialmerger.gles"
    },
    {
      "mesh": 0,
      "name": ""
    }
  ],
  "scene": 0,
  "scenes": [
    {
      "name": "OSG_Scene",
      "nodes": [
        0
      ]
    }
  ]
}

